<svg id="Layer_1" data-name="Layer 1" xmlns="http://www.w3.org/2000/svg" viewBox="0 0 94.5 80"><defs><style>.cls-1{fill:#fff;}</style></defs><path class="cls-1" d="M46.7,15.3h9.9l5,3.4h.6a.5.5,0,0,0,.3-.5V15c1-.4,2.2-1.3,2.2-2.5V2.8A2.9,2.9,0,0,0,61.9,0H46.7a2.9,2.9,0,0,0-2.8,2.8v9.7A2.9,2.9,0,0,0,46.7,15.3ZM45,2.8a1.8,1.8,0,0,1,1.7-1.7H61.9a1.8,1.8,0,0,1,1.7,1.7v9.7c0,.6-1,1.4-1.8,1.6a.7.7,0,0,0-.4.5v2.6L57,14.3H46.7A1.8,1.8,0,0,1,45,12.5Z" transform="translate(-2.8)"/><path class="cls-1" d="M47.9,5.6H60.7a1,1,0,0,0,1-1,1.1,1.1,0,0,0-1-1H47.9a1.1,1.1,0,0,0-1,1A1,1,0,0,0,47.9,5.6Zm0-1.3H60.7a.3.3,0,0,1,.3.3c0,.2-.1.4-.3.4H47.9a.4.4,0,0,1-.4-.4C47.5,4.4,47.7,4.3,47.9,4.3Z" transform="translate(-2.8)"/><path class="cls-1" d="M47.9,8.6H60.7a1,1,0,0,0,0-2H47.9a1,1,0,0,0,0,2Zm0-1.4H60.7c.2,0,.3.2.3.4s-.1.4-.3.4H47.9a.4.4,0,0,1,0-.8Z" transform="translate(-2.8)"/><path class="cls-1" d="M47.9,11.5H60.7a1.1,1.1,0,0,0,1-1,1,1,0,0,0-1-1H47.9a1,1,0,0,0-1,1A1.1,1.1,0,0,0,47.9,11.5Zm0-1.4H60.7c.2,0,.3.2.3.4a.3.3,0,0,1-.3.3H47.9c-.2,0-.4-.1-.4-.3A.4.4,0,0,1,47.9,10.1Z" transform="translate(-2.8)"/><path class="cls-1" d="M97.2,74.1h0v-.2h0v-.2h0c-.1-.1-.1-.2-.2-.2h-.4L84.9,67.3V15.8a1.6,1.6,0,0,0-1.6-1.5h-67a1.5,1.5,0,0,0-1.5,1.5V67.3L3.6,73H3.2c-.1,0-.1.1-.2.2H3v.2h0V74h0v.2h0v4.2A1.5,1.5,0,0,0,4.3,80H95.7a1.5,1.5,0,0,0,1.5-1.5V74.3h0ZM10.6,72.8l6.1-3.1H83l6.2,3.1Zm7.2-55.5h64V66.7h-64ZM94.2,77H5.8V75.9H94.2Z" transform="translate(-2.8)"/><path class="cls-1" d="M75.3,20.6h-51a1.5,1.5,0,0,0-1.5,1.5V56.4A1.6,1.6,0,0,0,24.3,58h51a1.6,1.6,0,0,0,1.5-1.6V22.1A1.5,1.5,0,0,0,75.3,20.6ZM73.8,54.9H25.9V23.6H73.8Z" transform="translate(-2.8)"/><path class="cls-1" d="M50.4,58.8a3.3,3.3,0,1,0,3.3,3.3A3.3,3.3,0,0,0,50.4,58.8Zm0,4.7a1.4,1.4,0,0,1,0-2.8,1.4,1.4,0,1,1,0,2.8Z" transform="translate(-2.8)"/></svg>