<svg id="Layer_1" data-name="Layer 1" xmlns="http://www.w3.org/2000/svg" xmlns:xlink="http://www.w3.org/1999/xlink" viewBox="0 0 93.4 93.4"><defs><style>.cls-1{fill:#fcfcfc;}.cls-2{fill:url(#linear-gradient);}.cls-3{fill:#314559;}</style><linearGradient id="linear-gradient" x1="6654.51" y1="-141.41" x2="6747.95" y2="-141.41" gradientTransform="translate(4688.2 -4788.5) rotate(135)" gradientUnits="userSpaceOnUse"><stop offset="0" stop-color="#fff"/><stop offset="0.28" stop-color="#fafbfc"/><stop offset="0.6" stop-color="#edeff2"/><stop offset="0.93" stop-color="#d7dbe2"/><stop offset="1" stop-color="#d1d5de"/></linearGradient></defs><path class="cls-1" d="M50.4,62.1a3.5,3.5,0,0,0,0,6.9,3.5,3.5,0,1,0,0-6.9Zm0,4.9a1.5,1.5,0,0,1-1.5-1.5A1.5,1.5,0,0,1,50.4,64a1.5,1.5,0,0,1,1.5,1.5A1.4,1.4,0,0,1,50.4,67Z" transform="translate(-3 -3.3)"/><circle class="cls-2" cx="49.7" cy="50" r="46.7" transform="translate(-23.8 46.5) rotate(-45)"/><path class="cls-3" d="M39.3,42.5H34.4a.9.9,0,0,1,0-1.8h4.9a1.4,1.4,0,0,0,1.4-1.4V28.1a1.4,1.4,0,0,0-1.4-1.4H25.6a1.4,1.4,0,0,0-1.4,1.4V39.3a1.4,1.4,0,0,0,1.4,1.4h4.5a.9.9,0,0,1,0,1.8H25.6a3.2,3.2,0,0,1-3.2-3.2V28.1a3.2,3.2,0,0,1,3.2-3.2H39.3a3.2,3.2,0,0,1,3.2,3.2V39.3A3.2,3.2,0,0,1,39.3,42.5Z" transform="translate(-3 -3.3)"/><path class="cls-3" d="M33.6,47.2a.9.9,0,0,1-.8-.4l-3.4-4.6a.9.9,0,0,1,.2-1.3.9.9,0,0,1,1.3.2L33,44l.5-2.6a.8.8,0,0,1,1-.7,1,1,0,0,1,.8,1.1l-.8,4.7a1.2,1.2,0,0,1-.7.7Z" transform="translate(-3 -3.3)"/><path class="cls-3" d="M32.5,39.4a.9.9,0,0,1-1-.9.9.9,0,0,1,1-1,.9.9,0,0,1,.9.9h0A.9.9,0,0,1,32.5,39.4Z" transform="translate(-3 -3.3)"/><path class="cls-3" d="M32.5,36a.9.9,0,0,1-1-.9V28.8a.9.9,0,0,1,1-.9.9.9,0,0,1,.9.9v6.3A.9.9,0,0,1,32.5,36Z" transform="translate(-3 -3.3)"/><path class="cls-3" d="M55,46.8H49.8a.6.6,0,0,1,0-1.2H55a.6.6,0,1,1,0,1.2Z" transform="translate(-3 -3.3)"/><path class="cls-3" d="M52.4,49.2H50.7a.6.6,0,0,1,0-1.2h1.7a.6.6,0,0,1,0,1.2Z" transform="translate(-3 -3.3)"/><path class="cls-3" d="M55.4,51.6H49.8a.6.6,0,0,1,0-1.2h5.6a.6.6,0,0,1,0,1.2Z" transform="translate(-3 -3.3)"/><path class="cls-3" d="M52.6,54H50.7a.6.6,0,0,1,0-1.2h1.9a.6.6,0,0,1,0,1.2Z" transform="translate(-3 -3.3)"/><path class="cls-3" d="M55.7,56.3H49.6c-.4,0-.6-.2-.6-.5a.6.6,0,0,1,.6-.6h6.1a.6.6,0,0,1,.6.6A.6.6,0,0,1,55.7,56.3Z" transform="translate(-3 -3.3)"/><path class="cls-3" d="M63.6,56.6h-.3l-2.5-1.2a2.7,2.7,0,0,1-1.5-2.5l.2-5.3a.7.7,0,0,1,.4-.5l3.5-1.1h.3L67.2,47a.5.5,0,0,1,.4.5l.2,5.3a2.7,2.7,0,0,1-1.4,2.5l-2.6,1.2C63.8,56.6,63.7,56.6,63.6,56.6Zm-3-8.6v4.9a1.3,1.3,0,0,0,.8,1.3l2.3,1.2,2.2-1.2a1.4,1.4,0,0,0,.9-1.3L66.5,48l-2.9-.9Z" transform="translate(-3 -3.3)"/><path class="cls-3" d="M63.3,53.2a.4.4,0,0,1-.4-.2l-1.6-1.7a.6.6,0,0,1,.8-.8l1.2,1.3L65,49.6a.6.6,0,0,1,.8-.1.5.5,0,0,1,.1.8L63.8,53l-.4.2Z" transform="translate(-3 -3.3)"/><path class="cls-3" d="M70.7,30.6H46.5a4,4,0,0,0-4,4V74.2a4,4,0,0,0,4,4H70.7a4,4,0,0,0,4.1-4V34.6A4,4,0,0,0,70.7,30.6Zm2.4,43.6a2.3,2.3,0,0,1-2.4,2.3H46.5a2.3,2.3,0,0,1-2.3-2.3V34.6a2.3,2.3,0,0,1,2.3-2.3H70.7a2.3,2.3,0,0,1,2.4,2.3Z" transform="translate(-3 -3.3)"/><path class="cls-3" d="M58.6,33.4a.5.5,0,0,0,.5-.5.5.5,0,0,0-.5-.4.4.4,0,0,0-.4.4A.5.5,0,0,0,58.6,33.4Z" transform="translate(-3 -3.3)"/><path class="cls-3" d="M57,35.2h3.3a.5.5,0,0,0,.4-.5.4.4,0,0,0-.4-.4H57a.5.5,0,0,0-.5.4A.5.5,0,0,0,57,35.2Z" transform="translate(-3 -3.3)"/><path class="cls-3" d="M55.5,35.1c.2,0,.3-.2.3-.4a.3.3,0,0,0-.3-.3c-.2,0-.4.1-.4.3A.4.4,0,0,0,55.5,35.1Z" transform="translate(-3 -3.3)"/><path class="cls-3" d="M58.6,70.9A2.6,2.6,0,0,0,56,73.5a2.7,2.7,0,1,0,5.3,0A2.6,2.6,0,0,0,58.6,70.9Zm0,4.4a1.8,1.8,0,1,1,1.8-1.8A1.8,1.8,0,0,1,58.6,75.3Z" transform="translate(-3 -3.3)"/><path class="cls-3" d="M70,36.2H47.3a.5.5,0,0,0-.5.4V70.3a.5.5,0,0,0,.5.4H70a.4.4,0,0,0,.4-.4V36.6A.4.4,0,0,0,70,36.2Zm-.4,33.6H47.7V37H69.6Z" transform="translate(-3 -3.3)"/></svg>