<svg id="Layer_1" data-name="Layer 1" xmlns="http://www.w3.org/2000/svg" viewBox="0 0 97.8 66.9"><defs><style>.cls-1{fill:#fff;}</style></defs><path class="cls-1" d="M97.6,30.3,85.8,27.6V8.2a1.7,1.7,0,0,0-1.7-1.7H2.8A1.7,1.7,0,0,0,1.1,8.2V51.9a1.7,1.7,0,0,0,1.7,1.7H9.9v.2A1.6,1.6,0,0,0,10,55a2.1,2.1,0,0,0,1.1.8l.9.2L87.8,73.4h.3a1.7,1.7,0,0,0,1.6-1.3l7.5-32.9,1.7-7a2,2,0,0,0-.2-1.3A2.6,2.6,0,0,0,97.6,30.3ZM85.8,42.7h0Zm-31,13.1a13,13,0,0,0,6.6-1.9l.4-.3H83.4l-.9,3.6h-.7a9.2,9.2,0,0,0-8.1,4.7,3.1,3.1,0,0,0-.6,1.3L31.8,53.6H47.7l.9.6.8.4a10.6,10.6,0,0,0,2.5.9A14.3,14.3,0,0,0,54.8,55.8Zm-2-2.2h3.9A12.8,12.8,0,0,1,52.8,53.6ZM4.5,50.2V9.9h78V50.2ZM86.8,69.8,16.5,53.6H27.1a.9.9,0,0,0,.6.7L73.4,64.8h.2a.7.7,0,0,0,.7-.6,7.6,7.6,0,0,1,7.3-5.5H83a.8.8,0,0,0,.9-.6L85,53.3l.3-.2a1.7,1.7,0,0,0,.5-1.2V49.8l1.8-7.5a.9.9,0,0,0-.6-.9l-1.2-.5V31l9.4,2.2Z" transform="translate(-1.1 -6.5)"/><path class="cls-1" d="M76,20.5a7.9,7.9,0,0,1-7.4-7.7.9.9,0,0,0-.8-.8H19.2a1,1,0,0,0-.9.8,7.9,7.9,0,0,1-7.4,7.7,1,1,0,0,0-.8.9V38.8a.9.9,0,0,0,.8.8,7.9,7.9,0,0,1,7.4,7.7.9.9,0,0,0,.9.8H67.8a.8.8,0,0,0,.8-.8A7.9,7.9,0,0,1,76,39.6a.8.8,0,0,0,.8-.8V21.4A.9.9,0,0,0,76,20.5ZM75.2,38A9.7,9.7,0,0,0,67,46.5H19.9A9.7,9.7,0,0,0,11.8,38V22.1a9.6,9.6,0,0,0,8.1-8.4H67a9.6,9.6,0,0,0,8.2,8.4Z" transform="translate(-1.1 -6.5)"/><path class="cls-1" d="M43.9,16.6A13.3,13.3,0,0,0,30.8,30.1,13.4,13.4,0,0,0,43.9,43.6,13.4,13.4,0,0,0,57,30.1,13.3,13.3,0,0,0,43.9,16.6Zm0,24.9a11.2,11.2,0,0,1-11-11.4,11,11,0,1,1,22,0A11.3,11.3,0,0,1,43.9,41.5Z" transform="translate(-1.1 -6.5)"/></svg>