<?xml version="1.0" encoding="utf-8"?>
<!-- Generator: Adobe Illustrator 24.1.0, SVG Export Plug-In . SVG Version: 6.00 Build 0)  -->
<svg version="1.1" id="Layer_1" xmlns="http://www.w3.org/2000/svg" xmlns:xlink="http://www.w3.org/1999/xlink" x="0px" y="0px"
	 viewBox="0 0 100 70" style="enable-background:new 0 0 100 70;" xml:space="preserve">
<style type="text/css">
	.st0{fill:#FCFCFC;}
</style>
<g id="XMLID_36970_">
	<path id="XMLID_36977_" class="st0" d="M99.14,63.02c-0.01-0.04-0.01-0.07-0.02-0.11c-0.01-0.06-0.03-0.12-0.05-0.17
		c-0.01-0.04-0.02-0.07-0.04-0.1c-0.03-0.06-0.06-0.12-0.1-0.18c-0.01-0.02-0.02-0.05-0.04-0.07c-0.05-0.08-0.11-0.15-0.18-0.22
		c-0.02-0.02-0.04-0.03-0.06-0.05c-0.05-0.05-0.11-0.09-0.16-0.13c-0.03-0.02-0.06-0.04-0.1-0.06c-0.04-0.02-0.07-0.05-0.11-0.07
		l-12-5.94V2.35c0-0.88-0.71-1.58-1.59-1.58H14.91c-0.88,0-1.59,0.71-1.59,1.58v53.59L1.7,61.87c-0.03,0.02-0.06,0.04-0.1,0.06
		c-0.03,0.02-0.07,0.04-0.1,0.06c-0.05,0.04-0.1,0.08-0.15,0.12c-0.02,0.02-0.05,0.04-0.07,0.06c-0.07,0.07-0.13,0.14-0.18,0.22
		c-0.01,0.01-0.01,0.02-0.02,0.03C1.04,62.5,1,62.57,0.97,62.65c-0.01,0.03-0.02,0.07-0.04,0.1c-0.02,0.06-0.04,0.12-0.06,0.18
		c-0.01,0.04-0.01,0.07-0.02,0.11c-0.01,0.06-0.02,0.13-0.02,0.19c0,0.02-0.01,0.04-0.01,0.06v4.31c0,0.88,0.71,1.58,1.59,1.58
		h95.16c0.88,0,1.59-0.71,1.59-1.58v-4.31c0-0.02-0.01-0.04-0.01-0.07C99.16,63.16,99.15,63.09,99.14,63.02z M9.02,61.7l6.27-3.2
		h69.04l6.47,3.2H9.02z M16.5,3.94h66.62v51.39H16.5V3.94z M96,66.01H4v-1.14H96V66.01z"/>
	<path id="XMLID_36974_" class="st0" d="M76.32,7.32H23.3c-0.88,0-1.59,0.71-1.59,1.59v35.74c0,0.88,0.71,1.59,1.59,1.59h53.02
		c0.88,0,1.59-0.71,1.59-1.59V8.91C77.9,8.03,77.19,7.32,76.32,7.32z M74.73,43.06H24.89V10.49h49.84V43.06z"/>
	<path id="XMLID_36971_" class="st0" d="M50.44,47.13c-1.88,0-3.41,1.53-3.41,3.41c0,1.88,1.53,3.41,3.41,3.41
		c1.88,0,3.41-1.53,3.41-3.41C53.85,48.66,52.32,47.13,50.44,47.13z M50.44,52.05c-0.83,0-1.51-0.67-1.51-1.5
		c0-0.83,0.68-1.51,1.51-1.51c0.83,0,1.51,0.67,1.51,1.51C51.95,51.37,51.27,52.05,50.44,52.05z"/>
</g>
<g>
</g>
<g>
</g>
<g>
</g>
<g>
</g>
<g>
</g>
</svg>
