<svg id="Layer_1" data-name="Layer 1" xmlns="http://www.w3.org/2000/svg" xmlns:xlink="http://www.w3.org/1999/xlink" viewBox="0 0 93.4 93.4"><defs><style>.cls-1{fill:#fcfcfc;}.cls-2{fill:url(#linear-gradient);}.cls-3{fill:#314559;}</style><linearGradient id="linear-gradient" x1="6654.51" y1="-141.41" x2="6747.95" y2="-141.41" gradientTransform="translate(4688.2 -4788.5) rotate(135)" gradientUnits="userSpaceOnUse"><stop offset="0" stop-color="#fff"/><stop offset="0.28" stop-color="#fafbfc"/><stop offset="0.6" stop-color="#edeff2"/><stop offset="0.93" stop-color="#d7dbe2"/><stop offset="1" stop-color="#d1d5de"/></linearGradient></defs><path class="cls-1" d="M50.4,62.1a3.5,3.5,0,0,0,0,6.9,3.5,3.5,0,1,0,0-6.9Zm0,4.9a1.5,1.5,0,0,1-1.5-1.5A1.5,1.5,0,0,1,50.4,64a1.5,1.5,0,0,1,1.5,1.5A1.4,1.4,0,0,1,50.4,67Z" transform="translate(-3 -3.3)"/><circle class="cls-2" cx="49.7" cy="50" r="46.7" transform="translate(-23.8 46.5) rotate(-45)"/><path class="cls-3" d="M58.5,42.4H46a1.2,1.2,0,0,1-1.2-1.3A1.2,1.2,0,0,1,46,39.9H58.5a1.2,1.2,0,0,1,1.2,1.2A1.2,1.2,0,0,1,58.5,42.4Z" transform="translate(-3 -3.3)"/><path class="cls-3" d="M61.9,36.2H42.6a1.2,1.2,0,1,1,0-2.4H61.9a1.2,1.2,0,1,1,0,2.4Z" transform="translate(-3 -3.3)"/><path class="cls-3" d="M62.2,48.5H39.5a1.2,1.2,0,0,1,0-2.4H62.2a1.2,1.2,0,0,1,0,2.4Z" transform="translate(-3 -3.3)"/><path class="cls-3" d="M54.8,54.7H39.5a1.3,1.3,0,0,1-1.2-1.2,1.3,1.3,0,0,1,1.2-1.3H54.8A1.2,1.2,0,0,1,56,53.5,1.2,1.2,0,0,1,54.8,54.7Z" transform="translate(-3 -3.3)"/><path class="cls-3" d="M53.7,60.9H39.5a1.3,1.3,0,0,1-1.2-1.3,1.3,1.3,0,0,1,1.2-1.2H53.7A1.3,1.3,0,0,1,55,59.6,1.3,1.3,0,0,1,53.7,60.9Z" transform="translate(-3 -3.3)"/><path class="cls-3" d="M49.4,67H39.5a1.2,1.2,0,0,1,0-2.4h9.9a1.2,1.2,0,0,1,0,2.4Z" transform="translate(-3 -3.3)"/><path class="cls-3" d="M49.4,73.2H39.5a1.3,1.3,0,0,1-1.2-1.3,1.3,1.3,0,0,1,1.2-1.2h9.9a1.2,1.2,0,0,1,1.2,1.2A1.2,1.2,0,0,1,49.4,73.2Z" transform="translate(-3 -3.3)"/><path class="cls-3" d="M59,78.6H34.9A5.7,5.7,0,0,1,29.3,73V31.4a5.7,5.7,0,0,1,5.6-5.6H68.3a5.6,5.6,0,0,1,5.6,5.6V52.2a1.2,1.2,0,1,1-2.4,0V31.4a3.1,3.1,0,0,0-3.2-3.1H34.9a3.1,3.1,0,0,0-3.1,3.1V73a3.1,3.1,0,0,0,3.1,3.2H59a1.2,1.2,0,1,1,0,2.4Z" transform="translate(-3 -3.3)"/><path class="cls-3" d="M65.7,82h-.6l-7.5-4a9.7,9.7,0,0,1-5.4-9.2l.5-15a1.5,1.5,0,0,1,1-1.2L65.5,50a.4.4,0,0,1,.5,0l11.7,2.5a1.3,1.3,0,0,1,1,1.2l.5,15a9.7,9.7,0,0,1-5.4,9.2l-7.5,4ZM55.1,54.7l-.5,14.1a7.6,7.6,0,0,0,4.2,7l6.9,3.6,7-3.6a7.7,7.7,0,0,0,4.1-7l-.5-14.1L65.7,52.4Z" transform="translate(-3 -3.3)"/><path class="cls-3" d="M65.7,70.1a1.6,1.6,0,0,1-.9-.3l-5-5a1.2,1.2,0,0,1-.1-1.7,1.3,1.3,0,0,1,1.8,0l4.1,4,6.1-6.7a1.2,1.2,0,0,1,1.8,1.7l-6.9,7.6a1,1,0,0,1-.9.4Z" transform="translate(-3 -3.3)"/></svg>