<svg id="Layer_1" data-name="Layer 1" xmlns="http://www.w3.org/2000/svg" xmlns:xlink="http://www.w3.org/1999/xlink" viewBox="0 0 93.4 93.4"><defs><style>.cls-1{fill:#fcfcfc;}.cls-2{fill:url(#linear-gradient);}.cls-3{fill:#314559;}</style><linearGradient id="linear-gradient" x1="6654.51" y1="-141.41" x2="6747.95" y2="-141.41" gradientTransform="translate(4688.2 -4788.5) rotate(135)" gradientUnits="userSpaceOnUse"><stop offset="0" stop-color="#fff"/><stop offset="0.28" stop-color="#fafbfc"/><stop offset="0.6" stop-color="#edeff2"/><stop offset="0.93" stop-color="#d7dbe2"/><stop offset="1" stop-color="#d1d5de"/></linearGradient></defs><path class="cls-1" d="M50.4,62.1a3.5,3.5,0,0,0,0,6.9,3.5,3.5,0,1,0,0-6.9Zm0,4.9a1.5,1.5,0,0,1-1.5-1.5A1.5,1.5,0,0,1,50.4,64a1.5,1.5,0,0,1,1.5,1.5A1.4,1.4,0,0,1,50.4,67Z" transform="translate(-3 -3.3)"/><circle class="cls-2" cx="49.7" cy="50" r="46.7" transform="translate(-23.8 46.5) rotate(-45)"/><path class="cls-3" d="M36.5,56.7a1.1,1.1,0,0,1-1.1-1.1V50.5a1.1,1.1,0,0,1,2.2,0v5.1A1.1,1.1,0,0,1,36.5,56.7Z" transform="translate(-3 -3.3)"/><path class="cls-3" d="M34.3,55.5a1,1,0,0,1-.9-.6,1,1,0,0,1,.4-1.5l4.4-2.6a1.1,1.1,0,0,1,1.5.4,1.2,1.2,0,0,1-.4,1.6l-4.4,2.5Z" transform="translate(-3 -3.3)"/><path class="cls-3" d="M38.7,55.5l-.5-.2-4.4-2.5a1.1,1.1,0,0,1-.4-1.6,1.1,1.1,0,0,1,1.5-.4l4.4,2.6a1.1,1.1,0,0,1,.4,1.5A1.1,1.1,0,0,1,38.7,55.5Z" transform="translate(-3 -3.3)"/><path class="cls-3" d="M45.6,56.7a1.1,1.1,0,0,1-1.1-1.1V50.5a1.1,1.1,0,0,1,2.2,0v5.1A1.1,1.1,0,0,1,45.6,56.7Z" transform="translate(-3 -3.3)"/><path class="cls-3" d="M43.4,55.5a1,1,0,0,1-.9-.6,1,1,0,0,1,.4-1.5l4.4-2.6a1.1,1.1,0,0,1,1.5.4,1.2,1.2,0,0,1-.4,1.6L44,55.3Z" transform="translate(-3 -3.3)"/><path class="cls-3" d="M47.8,55.5l-.5-.2-4.4-2.5a1.1,1.1,0,0,1-.4-1.6,1.1,1.1,0,0,1,1.5-.4l4.4,2.6a1.1,1.1,0,0,1,.4,1.5A1.1,1.1,0,0,1,47.8,55.5Z" transform="translate(-3 -3.3)"/><path class="cls-3" d="M54.7,56.7a1.1,1.1,0,0,1-1.1-1.1V50.5a1.1,1.1,0,1,1,2.2,0v5.1A1.1,1.1,0,0,1,54.7,56.7Z" transform="translate(-3 -3.3)"/><path class="cls-3" d="M52.5,55.5a1,1,0,0,1-.9-.6,1,1,0,0,1,.4-1.5l4.4-2.6a1.1,1.1,0,0,1,1.5.4,1.2,1.2,0,0,1-.4,1.6l-4.4,2.5Z" transform="translate(-3 -3.3)"/><path class="cls-3" d="M56.9,55.5l-.5-.2L52,52.8a1.1,1.1,0,0,1-.4-1.6,1.1,1.1,0,0,1,1.5-.4l4.4,2.6a1.1,1.1,0,0,1,.4,1.5A1.1,1.1,0,0,1,56.9,55.5Z" transform="translate(-3 -3.3)"/><path class="cls-3" d="M63.8,56.7a1.1,1.1,0,0,1-1.1-1.1V50.5a1.1,1.1,0,0,1,2.2,0v5.1A1.1,1.1,0,0,1,63.8,56.7Z" transform="translate(-3 -3.3)"/><path class="cls-3" d="M61.6,55.5a1,1,0,0,1-.9-.6,1,1,0,0,1,.4-1.5l4.4-2.6a1.1,1.1,0,0,1,1.5.4,1.2,1.2,0,0,1-.4,1.6l-4.4,2.5Z" transform="translate(-3 -3.3)"/><path class="cls-3" d="M66,55.5l-.5-.2-4.4-2.5a1.1,1.1,0,0,1-.4-1.6,1.1,1.1,0,0,1,1.5-.4l4.4,2.6a1.1,1.1,0,0,1,.4,1.5A1.1,1.1,0,0,1,66,55.5Z" transform="translate(-3 -3.3)"/><g id="lock"><path class="cls-3" d="M56.8,45.6H43.5a2.8,2.8,0,0,1-2.8-2.8V34.4a2.9,2.9,0,0,1,2.8-2.8H56.8a2.9,2.9,0,0,1,2.9,2.8v8.4A2.8,2.8,0,0,1,56.8,45.6ZM43.5,33.8a.6.6,0,0,0-.6.6v8.4a.6.6,0,0,0,.6.6H56.8a.6.6,0,0,0,.6-.6V34.4a.6.6,0,0,0-.6-.6Z" transform="translate(-3 -3.3)"/><path class="cls-3" d="M55.9,33.8a1.1,1.1,0,0,1-1.1-1.1V30.8a4.6,4.6,0,1,0-9.2,0v1.9a1.1,1.1,0,1,1-2.2,0V30.8a6.8,6.8,0,1,1,13.6,0v1.9A1.1,1.1,0,0,1,55.9,33.8Z" transform="translate(-3 -3.3)"/></g><path class="cls-3" d="M50.2,40.9a1.1,1.1,0,0,1-1.1-1.1V37.6a1.1,1.1,0,1,1,2.2,0v2.2A1.1,1.1,0,0,1,50.2,40.9Z" transform="translate(-3 -3.3)"/><path class="cls-3" d="M74.5,62.5H25.9a1.1,1.1,0,0,1-1.1-1.1V35.5A3.2,3.2,0,0,1,28,32.3H38.2a1.1,1.1,0,0,1,0,2.2H28a.9.9,0,0,0-1,1V60.3H73.3V35.5a.9.9,0,0,0-.9-1H62.2a1.1,1.1,0,1,1,0-2.2H72.4a3.2,3.2,0,0,1,3.2,3.2V61.4A1.1,1.1,0,0,1,74.5,62.5Z" transform="translate(-3 -3.3)"/><path class="cls-3" d="M75.9,74.9H24.4a2.9,2.9,0,0,1-2.8-2.8v-.7a8.5,8.5,0,0,1,.6-3.1l2.6-7.4a1.2,1.2,0,0,1,1.1-.7H74.5a1.2,1.2,0,0,1,1,.7l2.7,7.4a11.2,11.2,0,0,1,.5,3.1v.7A2.8,2.8,0,0,1,75.9,74.9ZM26.7,62.4,24.3,69a6.7,6.7,0,0,0-.4,2.4v.7a.6.6,0,0,0,.5.6H75.9a.6.6,0,0,0,.6-.6v-.7a10,10,0,0,0-.4-2.4l-2.4-6.6Z" transform="translate(-3 -3.3)"/><path class="cls-3" d="M51.5,70.7H48.9a1.1,1.1,0,1,1,0-2.2h2.6a1.1,1.1,0,1,1,0,2.2Z" transform="translate(-3 -3.3)"/><path class="cls-3" d="M70.4,66.8H30a1.2,1.2,0,0,1-1.2-1.2A1.1,1.1,0,0,1,30,64.5H70.4a1.1,1.1,0,0,1,1.1,1.1A1.1,1.1,0,0,1,70.4,66.8Z" transform="translate(-3 -3.3)"/></svg>