<svg id="Layer_1" data-name="Layer 1" xmlns="http://www.w3.org/2000/svg" viewBox="0 0 77 77.7"><defs><style>.cls-1{fill:#fff;}</style></defs><path class="cls-1" d="M80.7,42a3.5,3.5,0,0,0,3.5-3.5A36.8,36.8,0,0,0,47.4,1.7a3.6,3.6,0,0,0,0,7.1A29.8,29.8,0,0,1,77.2,38.5,3.5,3.5,0,0,0,80.7,42ZM47.4,6.5a1.3,1.3,0,1,1,0-2.6A34.6,34.6,0,0,1,82,38.5a1.3,1.3,0,1,1-2.6,0A32,32,0,0,0,47.4,6.5Z" transform="translate(-7.2 -1.7)"/><path class="cls-1" d="M47,13.5a3.6,3.6,0,0,0,0,7.1A18.3,18.3,0,0,1,65.3,38.9a3.6,3.6,0,0,0,7.1,0A25.4,25.4,0,0,0,47,13.5ZM68.8,40.2a1.3,1.3,0,0,1-1.3-1.3A20.5,20.5,0,0,0,47,18.4a1.3,1.3,0,0,1,0-2.6A23,23,0,0,1,70.1,38.9,1.3,1.3,0,0,1,68.8,40.2Z" transform="translate(-7.2 -1.7)"/><path class="cls-1" d="M60.9,79.3h1.8a15.9,15.9,0,0,0,8.2-2.2,10.9,10.9,0,0,0,2.9-2.3l2.3-2.5a12.1,12.1,0,0,0-.9-17.1l-3.8-3.5a12,12,0,0,0-8.1-3.1,12.4,12.4,0,0,0-9,4l-2.2,2.5A9.9,9.9,0,0,0,50,58.4a42.1,42.1,0,0,1-20.7-19,11.5,11.5,0,0,0,4.2-3l2.3-2.5a11.7,11.7,0,0,0,3.1-8.7,11.8,11.8,0,0,0-4-8.4l-3.8-3.5A12,12,0,0,0,23,10.2a12.4,12.4,0,0,0-9,4l-2.2,2.5-.9,1.1C8.4,20.1,6.4,25,7.5,31A60.1,60.1,0,0,0,60.9,79.3Zm-47.7-59c0-.1.1-.1.1-.2h.2c0-.1,0-.1.1-.2a2.7,2.7,0,0,1,.7-.8l2.2-2.6a9,9,0,0,1,12.4-.6l3.8,3.5a9,9,0,0,1,2.9,6,8.7,8.7,0,0,1-2.3,6.3L31,34.1h0a7.8,7.8,0,0,1-3.9,2.5l-.7.2a1.8,1.8,0,0,0-1.1,1,2.3,2.3,0,0,0,.1,1.4l.3.6A45.3,45.3,0,0,0,49.8,61.9l.6.2a1.5,1.5,0,0,0,1.3,0,2.2,2.2,0,0,0,.9-1l.2-.6a9.7,9.7,0,0,1,1.8-3.1l2.2-2.5a9,9,0,0,1,12.4-.6L73,57.8a8.7,8.7,0,0,1,.6,12.3l-2.3,2.5a6.8,6.8,0,0,1-2.1,1.7,13.2,13.2,0,0,1-8,1.7A56.9,56.9,0,0,1,10.8,30.4C9.9,25.3,11.7,21.5,13.2,20.3Z" transform="translate(-7.2 -1.7)"/></svg>