<svg id="Layer_1" data-name="Layer 1" xmlns="http://www.w3.org/2000/svg" viewBox="0 0 56.5 72.4"><defs><style>.cls-1{fill:#fff;}</style></defs><path class="cls-1" d="M23.2,38.1a1.4,1.4,0,0,0-1.4,1.1,1.3,1.3,0,0,0,1,1.5,60.7,60.7,0,0,0,13.3,1.6C55.2,42.3,65,31.4,72,19.8l4.3,2.6a1.4,1.4,0,0,0,1.4-.1,1.3,1.3,0,0,0,.5-1.3L75.5,4.9a1.3,1.3,0,0,0-.7-.9,1.1,1.1,0,0,0-1.1-.1L59.3,10a1.3,1.3,0,0,0-.8,1.2,1.4,1.4,0,0,0,.7,1.2l4.4,2.1C52,40.1,24.4,38.2,23.2,38.1ZM66.5,14.4a1.3,1.3,0,0,0-.6-1.7L63,11.3,73.2,7l2,11.6-3-1.7a1.2,1.2,0,0,0-1-.2,1.6,1.6,0,0,0-.8.6c-7,12-16.3,22.7-35.1,22.3C45.4,37.5,59.3,31.4,66.5,14.4Z" transform="translate(-21.7 -3.8)"/><path class="cls-1" d="M27.4,54.9c-2.5,0-4.5,2.5-4.5,5.7v9.9c0,3.2,2,5.7,4.5,5.7h6.2c2.6,0,4.6-2.5,4.6-5.7V60.6c0-3.2-2-5.7-4.6-5.7Zm8.1,5.7v9.9c0,1.6-.9,3.1-1.9,3.1H27.4c-1,0-1.9-1.5-1.9-3.1V60.6c0-1.6.9-3,1.9-3h6.2C34.6,57.6,35.5,59,35.5,60.6Z" transform="translate(-21.7 -3.8)"/><path class="cls-1" d="M46.2,45.6c-2.6,0-4.6,2.5-4.6,5.7V70.5c0,3.2,2,5.7,4.6,5.7h6.2c2.5,0,4.5-2.5,4.5-5.7V51.3c0-3.2-2-5.7-4.5-5.7Zm8.1,5.7V70.5c0,1.6-.9,3.1-1.9,3.1H46.2c-1,0-1.9-1.5-1.9-3.1V51.3c0-1.6.9-3,1.9-3h6.2C53.4,48.3,54.3,49.7,54.3,51.3Z" transform="translate(-21.7 -3.8)"/><path class="cls-1" d="M73,34.5H66.8c-2.5,0-4.5,2.5-4.5,5.6V70.5c0,3.2,2,5.7,4.5,5.7H73c2.6,0,4.6-2.5,4.6-5.7V40.1C77.6,37,75.6,34.5,73,34.5Zm1.9,36c0,1.6-.9,3.1-1.9,3.1H66.8c-1,0-1.9-1.5-1.9-3.1V40.1c0-1.6.9-3,1.9-3H73c1,0,1.9,1.4,1.9,3Z" transform="translate(-21.7 -3.8)"/></svg>