<svg id="Layer_1" data-name="Layer 1" xmlns="http://www.w3.org/2000/svg" viewBox="0 0 85.1 77.2"><defs><style>.cls-1{fill:#fff;}</style></defs><path class="cls-1" d="M18.9,64.2H59.3l20.9,14a2.5,2.5,0,0,0,1.2.4,1.7,1.7,0,0,0,1-.3,2.1,2.1,0,0,0,1.2-1.9V63.1c4.1-1.7,9-5.4,9-10.4V12.9A11.6,11.6,0,0,0,81.1,1.4H18.9A11.6,11.6,0,0,0,7.4,12.9V52.7A11.5,11.5,0,0,0,18.9,64.2Zm-7-51.3a7,7,0,0,1,7-7H81.1a7,7,0,0,1,7,7V52.7c0,2.6-3.9,5.7-7.4,6.8a2.2,2.2,0,0,0-1.5,2.1V72.2l-17.9-12a2,2,0,0,0-1.3-.4H18.9a7.1,7.1,0,0,1-7-7.1Z" transform="translate(-7.4 -1.4)"/><path class="cls-1" d="M23.7,24.6H76.1a4.2,4.2,0,1,0,0-8.4H23.7a4.2,4.2,0,0,0,0,8.4Zm0-5.7H76.1a1.5,1.5,0,0,1,0,3H23.7a1.5,1.5,0,1,1,0-3Z" transform="translate(-7.4 -1.4)"/><path class="cls-1" d="M23.7,36.8H76.1a4.2,4.2,0,0,0,4.2-4.2,4.1,4.1,0,0,0-4.2-4.1H23.7a4.1,4.1,0,0,0-4.1,4.1A4.1,4.1,0,0,0,23.7,36.8Zm0-5.7H76.1a1.5,1.5,0,0,1,1.5,1.5,1.5,1.5,0,0,1-1.5,1.6H23.7a1.6,1.6,0,0,1-1.5-1.6A1.5,1.5,0,0,1,23.7,31.1Z" transform="translate(-7.4 -1.4)"/><path class="cls-1" d="M23.7,48.6H76.1a4.1,4.1,0,0,0,4.2-4.1,4.2,4.2,0,0,0-4.2-4.2H23.7a4.1,4.1,0,0,0-4.1,4.2A4.1,4.1,0,0,0,23.7,48.6Zm0-5.6H76.1a1.4,1.4,0,0,1,1.5,1.5A1.5,1.5,0,0,1,76.1,46H23.7a1.5,1.5,0,0,1-1.5-1.5A1.5,1.5,0,0,1,23.7,43Z" transform="translate(-7.4 -1.4)"/></svg>