<svg id="Layer_1" data-name="Layer 1" xmlns="http://www.w3.org/2000/svg" viewBox="0 0 68.5 68.4"><defs><style>.cls-1{fill:#fcfcfc;}</style></defs><path class="cls-1" d="M50.4,47.1a3.5,3.5,0,0,0,0,6.9,3.5,3.5,0,1,0,0-6.9Zm0,4.9a1.5,1.5,0,0,1-1.5-1.5A1.5,1.5,0,0,1,50.4,49a1.5,1.5,0,0,1,1.5,1.5A1.4,1.4,0,0,1,50.4,52Z" transform="translate(-15.6 -0.9)"/><path class="cls-1" d="M51.3.9H48a34.3,34.3,0,0,0,0,68.4h3.3A34.2,34.2,0,0,0,51.3.9ZM73.8,14.6a38.8,38.8,0,0,1-7.9,4.6A40.8,40.8,0,0,0,55.1,3.9,31.5,31.5,0,0,1,73.8,14.6ZM51.1,4.1A38.3,38.3,0,0,1,63.5,20.2a40,40,0,0,1-12.4,2.3Zm0,21a42.8,42.8,0,0,0,13.3-2.4,38.5,38.5,0,0,1,2,12.2H51.1Zm0,12.4H66.3a37.3,37.3,0,0,1-2.6,11.9,41.2,41.2,0,0,0-12.6-2.2ZM44.1,4A41.6,41.6,0,0,0,33.5,18.7a42.7,42.7,0,0,1-7.3-4.6A31.7,31.7,0,0,1,44.1,4ZM24.5,16.2a47.6,47.6,0,0,0,8.1,5,39.9,39.9,0,0,0-2.4,13.7h-12A30.8,30.8,0,0,1,24.5,16.2Zm1,39a31,31,0,0,1-7.2-17.7h12a42.8,42.8,0,0,0,2.9,13.3A45.1,45.1,0,0,0,25.5,55.2Zm1.8,2a37.3,37.3,0,0,1,7-4A41,41,0,0,0,44,66.1,31.1,31.1,0,0,1,27.3,57.2Zm21.2,9.2A39,39,0,0,1,36.8,52.2a38.6,38.6,0,0,1,11.7-2.3Zm0-19.2a42.9,42.9,0,0,0-12.8,2.6A36.6,36.6,0,0,1,33,37.5H48.5Zm0-12.3H32.9A38.9,38.9,0,0,1,35,22.2a41.3,41.3,0,0,0,13.5,2.9Zm0-12.5A38.3,38.3,0,0,1,36,19.7,38.6,38.6,0,0,1,48.5,3.8Zm2.6,43.7V49.8a40.9,40.9,0,0,1,11.6,2A39.1,39.1,0,0,1,51.1,66.1Zm4,.1A40.6,40.6,0,0,0,65.2,52.7a38.7,38.7,0,0,1,7.5,4.1A31.1,31.1,0,0,1,55.1,66.2ZM74.5,54.8a44.4,44.4,0,0,0-8.3-4.5,40.1,40.1,0,0,0,2.7-12.8H81.3A31.3,31.3,0,0,1,74.5,54.8Zm6.9-19.9H69a41.9,41.9,0,0,0-2.1-13.2,43.8,43.8,0,0,0,8.6-5A31.1,31.1,0,0,1,81.4,34.9Z" transform="translate(-15.6 -0.9)"/></svg>