<svg id="Layer_1" data-name="Layer 1" xmlns="http://www.w3.org/2000/svg" xmlns:xlink="http://www.w3.org/1999/xlink" viewBox="0 0 93.4 93.4"><defs><style>.cls-1{fill:#fcfcfc;}.cls-2{fill:url(#linear-gradient);}.cls-3{fill:#314559;}</style><linearGradient id="linear-gradient" x1="6654.51" y1="-141.41" x2="6747.95" y2="-141.41" gradientTransform="translate(4688.2 -4788.5) rotate(135)" gradientUnits="userSpaceOnUse"><stop offset="0" stop-color="#fff"/><stop offset="0.28" stop-color="#fafbfc"/><stop offset="0.6" stop-color="#edeff2"/><stop offset="0.93" stop-color="#d7dbe2"/><stop offset="1" stop-color="#d1d5de"/></linearGradient></defs><path class="cls-1" d="M50.4,62.1a3.5,3.5,0,0,0,0,6.9,3.5,3.5,0,1,0,0-6.9Zm0,4.9a1.5,1.5,0,0,1-1.5-1.5A1.5,1.5,0,0,1,50.4,64a1.5,1.5,0,0,1,1.5,1.5A1.4,1.4,0,0,1,50.4,67Z" transform="translate(-3 -3.3)"/><circle class="cls-2" cx="49.7" cy="50" r="46.7" transform="translate(-23.8 46.5) rotate(-45)"/><path class="cls-3" d="M42.4,48.3H36.1a1.2,1.2,0,0,1,0-2.4h6.3a1.8,1.8,0,0,0,1.7-1.8V29.7a1.8,1.8,0,0,0-1.7-1.8H24.8A1.8,1.8,0,0,0,23,29.7V44.1a1.8,1.8,0,0,0,1.8,1.8h5.8a1.2,1.2,0,0,1,0,2.4H24.8a4.2,4.2,0,0,1-4.2-4.2V29.7a4.2,4.2,0,0,1,4.2-4.2H42.4a4.1,4.1,0,0,1,4.1,4.2V44.1A4.1,4.1,0,0,1,42.4,48.3Z" transform="translate(-3 -3.3)"/><path class="cls-3" d="M35,54.3a1.1,1.1,0,0,1-1-.5l-4.4-6a1.2,1.2,0,0,1,.3-1.7,1.1,1.1,0,0,1,1.6.3l2.8,3.8.6-3.3a1.2,1.2,0,0,1,1.4-1,1.2,1.2,0,0,1,.9,1.4l-1,6a1.3,1.3,0,0,1-.9,1Z" transform="translate(-3 -3.3)"/><path class="cls-3" d="M33.6,44.2A1.2,1.2,0,0,1,32.4,43a1.2,1.2,0,0,1,1.2-1.2,1.2,1.2,0,0,1,1.2,1.1h0A1.2,1.2,0,0,1,33.6,44.2Z" transform="translate(-3 -3.3)"/><path class="cls-3" d="M33.6,39.9a1.2,1.2,0,0,1-1.2-1.2V30.6a1.2,1.2,0,0,1,1.2-1.2,1.2,1.2,0,0,1,1.2,1.2v8.1A1.3,1.3,0,0,1,33.6,39.9Z" transform="translate(-3 -3.3)"/><path class="cls-3" d="M67.8,39.2H57.1A1.2,1.2,0,0,1,55.9,38a1.2,1.2,0,0,1,1.2-1.2H67.8A1.2,1.2,0,0,1,69,38,1.2,1.2,0,0,1,67.8,39.2Z" transform="translate(-3 -3.3)"/><path class="cls-3" d="M65.9,44.1H62.4a1.2,1.2,0,0,1-1.2-1.2,1.3,1.3,0,0,1,1.2-1.2h3.5a1.2,1.2,0,0,1,1.2,1.2A1.2,1.2,0,0,1,65.9,44.1Z" transform="translate(-3 -3.3)"/><path class="cls-3" d="M67.9,49H56.5a1.2,1.2,0,0,1-1.2-1.2,1.2,1.2,0,0,1,1.2-1.2H67.9a1.2,1.2,0,0,1,1.2,1.2A1.2,1.2,0,0,1,67.9,49Z" transform="translate(-3 -3.3)"/><path class="cls-3" d="M65.9,53.9H62a1.2,1.2,0,0,1-1.2-1.2A1.3,1.3,0,0,1,62,51.5h3.9a1.2,1.2,0,0,1,1.2,1.2A1.2,1.2,0,0,1,65.9,53.9Z" transform="translate(-3 -3.3)"/><path class="cls-3" d="M68.4,58.8H55.7a1.2,1.2,0,0,1-1.2-1.2,1.2,1.2,0,0,1,1.2-1.2H68.4a1.2,1.2,0,0,1,1.1,1.2A1.1,1.1,0,0,1,68.4,58.8Z" transform="translate(-3 -3.3)"/><path class="cls-3" d="M75.4,63.8H25a1.3,1.3,0,0,1-.9-.4,1.2,1.2,0,0,1-.3-.9l.5-15a1.2,1.2,0,1,1,2.4,0l-.5,13.9H74.1l-.9-26.7H45.7a1.2,1.2,0,0,1,0-2.4H74.4a1.2,1.2,0,0,1,1.2,1.2l1,29a1.3,1.3,0,0,1-.4.9A1.2,1.2,0,0,1,75.4,63.8Z" transform="translate(-3 -3.3)"/><path class="cls-3" d="M76.9,76.6H23.4a2.9,2.9,0,0,1-2.9-2.9V73a9.6,9.6,0,0,1,.6-3.3l2.8-7.6a1.1,1.1,0,0,1,1.1-.8H75.4a1.2,1.2,0,0,1,1.1.8l2.7,7.6a9.6,9.6,0,0,1,.6,3.3v.7A2.9,2.9,0,0,1,76.9,76.6ZM25.8,63.7l-2.5,6.8a10.9,10.9,0,0,0-.4,2.5v.7a.5.5,0,0,0,.5.5H76.9a.5.5,0,0,0,.5-.5V73a7.3,7.3,0,0,0-.4-2.5l-2.5-6.8Z" transform="translate(-3 -3.3)"/><path class="cls-3" d="M51.5,72.3H48.8a1.2,1.2,0,0,1-1.2-1.2,1.3,1.3,0,0,1,1.2-1.2h2.7a1.2,1.2,0,0,1,1.2,1.2A1.2,1.2,0,0,1,51.5,72.3Z" transform="translate(-3 -3.3)"/><path class="cls-3" d="M71.1,68.2H29.2a1.2,1.2,0,1,1,0-2.4H71.1a1.2,1.2,0,0,1,0,2.4Z" transform="translate(-3 -3.3)"/></svg>