<svg id="Layer_1" data-name="Layer 1" xmlns="http://www.w3.org/2000/svg" viewBox="0 0 97.1 72.5"><defs><style>.cls-1{fill:#fff;}</style></defs><path class="cls-1" d="M51.6,50.9c-3.3-2.9-8.2-4.1-14.5-3.6a15.8,15.8,0,1,0-24.6-13,15.3,15.3,0,0,0,6.3,12.5c-4.6-.4-14.3-.1-17.3,10.1V75.1a1.2,1.2,0,0,0,1.2,1.2H54.3a1.2,1.2,0,0,0,1.2-1.2v-17h0A10.6,10.6,0,0,0,51.6,50.9ZM14.7,34.3A13.5,13.5,0,1,1,28.3,47.7h-.2A13.4,13.4,0,0,1,14.7,34.3ZM28,52.5h1.1l1.7,3.6-2.3,4.5-1.7-3.4Zm-1.4-2.4a.8.8,0,0,1,.8-.8h2.2a.8.8,0,0,1,.8.8.7.7,0,0,1-.8.8H27.4A.7.7,0,0,1,26.6,50.1Zm4.2,2.1A2.3,2.3,0,0,0,32,50.1a1.3,1.3,0,0,0-.1-.6,13.1,13.1,0,0,0,2.8-.9l-3,5.7Zm-4.4.1L25.7,55l-3.1-6.1a11.3,11.3,0,0,0,2.4.8v.4A2.2,2.2,0,0,0,26.4,52.3ZM53.1,73.9H3.8V57.4c3-9.9,13.8-8.5,16.3-8l7.3,14.4a1.1,1.1,0,0,0,1.1.6h0a1.4,1.4,0,0,0,1.1-.6l7.2-14.1c5.9-.5,10.4.5,13.2,2.9a8.4,8.4,0,0,1,3.1,5.6Z" transform="translate(-1.5 -3.8)"/><path class="cls-1" d="M66.8,57.1l-.5-.2L54.8,50.2A18,18,0,0,1,46,33.9l.8-23.3a1,1,0,0,1,1-1h9.3l9.2-5.7a1.1,1.1,0,0,1,1.1,0l9.2,5.7h9.2a1.1,1.1,0,0,1,1.1,1l.3,8.7a1.1,1.1,0,0,1-1,1.1,1,1,0,0,1-1.1-1l-.3-7.7H75.7L66.8,6.1l-8.9,5.5h-9L48.1,34a16,16,0,0,0,7.7,14.4l11,6.4,11-6.4,1.5-1a1,1,0,0,1,1.5.2,1,1,0,0,1-.2,1.5l-1.7,1.1L67.4,56.9Z" transform="translate(-1.5 -3.8)"/><path class="cls-1" d="M66.8,51.3h-.5l-9-5.3A12.8,12.8,0,0,1,51,34.1l.6-18.5a1,1,0,0,1,1.1-1h6l7.6-4.4a1.1,1.1,0,0,1,1.1,0l7.5,4.4H81a1.1,1.1,0,0,1,1.1,1.1,1.1,1.1,0,0,1-1.1,1H74.1l-7.3-4.3-7.2,4.3H53.7l-.6,17.5a11.2,11.2,0,0,0,5.2,9.9L66.8,49l5.9-3.4a1,1,0,0,1,1.4.4,1.1,1.1,0,0,1-.4,1.5l-6.3,3.7Z" transform="translate(-1.5 -3.8)"/><path class="cls-1" d="M78.8,43.4h0a3.6,3.6,0,0,1-2.6-1.1l-7.8-7.8a3.7,3.7,0,0,1,0-5.3,3.8,3.8,0,0,1,5.4,0l5,5.1L92.1,21a3.9,3.9,0,0,1,5.3,0,3.8,3.8,0,0,1,0,5.4L81.5,42.3A3.7,3.7,0,0,1,78.8,43.4Z" transform="translate(-1.5 -3.8)"/></svg>