<svg width="46" height="50" viewBox="0 0 46 50" fill="none" xmlns="http://www.w3.org/2000/svg">
<path d="M45.7422 10.0156C45.7422 8.00078 43.9131 5.88672 41.8076 5.88672H34.8245V0.976562C34.8245 0.437207 34.3872 0 33.8479 0H18.1843C17.9326 0 17.6822 0.101758 17.5022 0.277637L11.7544 5.88672H4.19226C4.16726 5.88672 4.14226 5.8877 4.11736 5.88955C1.953 6.05605 0.25769 7.86846 0.25769 10.0156L0.258081 38.5171C0.258081 40.6866 2.02302 42.4517 4.19255 42.4517H17.2539L16.0295 48.0469H13.0838C12.5445 48.0469 12.1072 48.4841 12.1072 49.0234C12.1072 49.5628 12.5445 50 13.0838 50H32.5302C33.0694 50 33.5067 49.5628 33.5067 49.0234C33.5067 48.4841 33.0694 48.0469 32.5302 48.0469H29.5979L28.4711 42.4517H41.8076C43.9771 42.4517 45.7422 40.6866 45.7422 38.5171V10.0156ZM41.7554 7.83984C42.8189 7.96738 43.789 8.92334 43.789 10.0156V35.8025H41.4267V11.1807C41.4267 10.6413 40.9894 10.2041 40.4502 10.2041H34.8246V7.83984H41.7554ZM32.8711 29.6406H13.1289V7.83984H18.1843C18.7235 7.83984 19.1608 7.40264 19.1608 6.86328V1.95312H32.8714L32.8711 29.6406ZM17.2077 3.29404V5.88672H14.551L17.2077 3.29404ZM4.23337 7.83984H11.1754V10.2041H5.54978C5.01052 10.2041 4.57322 10.6413 4.57322 11.1807V35.8025H2.21091V10.0156C2.21082 8.9126 3.11502 7.94365 4.23337 7.83984ZM27.6056 48.0469H18.0288L19.2533 42.4517H26.4789L27.6056 48.0469ZM41.8077 40.4985H4.19255C3.09998 40.4985 2.21121 39.6097 2.21121 38.5171V37.7559H18.7712C19.3104 37.7559 19.7477 37.3187 19.7477 36.7793C19.7477 36.6444 19.7204 36.5159 19.671 36.3991C19.5227 36.0485 19.1757 35.8025 18.7711 35.8025H6.52634V12.1572H11.1754V30.6176C11.1754 31.1569 11.6127 31.5941 12.1519 31.5941H33.8479C34.3872 31.5941 34.8245 31.1569 34.8245 30.6176V12.1572H39.4735V35.8025H27.3624C26.8231 35.8025 26.3858 36.2397 26.3858 36.7791C26.3858 37.3185 26.8231 37.7559 27.3624 37.7559H43.7891V38.5171C43.7891 39.6097 42.9002 40.4985 41.8077 40.4985Z" fill="#999999"/>
<path d="M26.8358 22.4944H19.1641C18.6248 22.4944 18.1875 22.9316 18.1875 23.471C18.1875 24.0103 18.6248 24.4475 19.1641 24.4475H26.8358C27.375 24.4475 27.8123 24.0103 27.8123 23.471C27.8123 22.9316 27.3751 22.4944 26.8358 22.4944Z" fill="#999999"/>
<path d="M22.8489 9.70713C22.6654 9.74316 22.4911 9.83477 22.357 9.96523L18.7477 13.4788C18.3613 13.8551 18.353 14.4733 18.7293 14.8598C19.1054 15.2462 19.7238 15.2545 20.1102 14.8783L22.0617 12.9785V19.6639C22.0617 20.2032 22.499 20.6404 23.0383 20.6404C23.5775 20.6404 24.0148 20.2032 24.0148 19.6639V12.9785L25.9663 14.8783C26.1561 15.0631 26.4019 15.1551 26.6474 15.1551C26.9017 15.1551 27.1558 15.0563 27.3473 14.8598C27.7235 14.4732 27.7152 13.855 27.3288 13.4788L23.7195 9.96523C23.4919 9.74385 23.1601 9.6458 22.8489 9.70713Z" fill="#999999"/>
<path d="M23.9883 36.4062C23.8304 36.0211 23.4288 35.7753 23.0145 35.8062C22.5891 35.838 22.2286 36.15 22.1342 36.5656C21.9404 37.418 22.9335 38.0781 23.6484 37.5772C24.0175 37.3185 24.1617 36.8226 23.9883 36.4062Z" fill="#999999"/>
</svg>
